<?xml version="1.0" standalone="no"?>
<!DOCTYPE svg PUBLIC "-//W3C//DTD SVG 20010904//EN"
 "http://www.w3.org/TR/2001/REC-SVG-20010904/DTD/svg10.dtd">
<svg version="1.0" xmlns="http://www.w3.org/2000/svg"
 width="512.000000pt" height="512.000000pt" viewBox="0 0 512.000000 512.000000"
 preserveAspectRatio="xMidYMid meet">

<g transform="translate(0.000000,512.000000) scale(0.100000,-0.100000)"
fill="#ffffff" stroke="none">
<path d="M2041 5103 c-88 -31 -161 -136 -161 -233 0 -60 30 -130 75 -175 80
-80 -18 -75 1402 -75 l1263 0 0 -1883 c0 -2114 -6 -1941 75 -2022 98 -98 252
-98 350 0 82 81 75 -103 75 2111 0 1946 0 1973 -20 2035 -37 119 -123 203
-242 241 -57 17 -124 18 -1416 17 -1202 0 -1362 -2 -1401 -16z"/>
<path d="M1153 4209 c-114 -22 -220 -106 -269 -212 l-29 -62 -3 -1805 c-3
-2002 -7 -1859 64 -1968 37 -56 91 -101 164 -136 l45 -21 1405 0 1405 0 67 33
c78 38 138 100 177 182 l26 55 3 1805 c3 2018 8 1880 -67 1979 -63 85 -132
129 -229 150 -63 13 -2691 14 -2759 0z m2557 -2099 l0 -1610 -1180 0 -1180 0
0 1610 0 1610 1180 0 1180 0 0 -1610z"/>
</g>
</svg>
